<svg xmlns="http://www.w3.org/2000/svg" viewBox="0 0 128 128">
  <rect width="128" height="128" rx="30" fill="#F4A823"/>
  <path d="M24 55h80v50H24z" fill="#FFF8EC"/>
  <path d="M18 45h92l-8-24H26z" fill="#FF6B35"/>
  <path d="M35 45h16l3-24H39zM77 45h16L88 21H73z" fill="#FFF8EC"/>
  <circle cx="64" cy="75" r="15" fill="#2F7D32"/>
  <path d="M58 75c0 5 3 8 6 8s6-3 6-8V63c0-4-3-7-6-7s-6 3-6 7z" fill="#FFF8EC"/>
  <path d="M52 74c0 8 5 14 12 14s12-6 12-14" fill="none" stroke="#FFF8EC" stroke-width="5" stroke-linecap="round"/>
</svg>
